<svg viewBox="0 0 14 14" fill="none" xmlns="http://www.w3.org/2000/svg"><path data-follow-fill="#202046" fill-rule="evenodd" clip-rule="evenodd" d="M2.463 2.462A6.399 6.399 0 0 1 7.001.583c1.771 0 3.376.719 4.537 1.88l-.413.412.413-.413A6.398 6.398 0 0 1 13.418 7a6.398 6.398 0 0 1-1.88 4.537A6.398 6.398 0 0 1 7 13.417a6.398 6.398 0 0 1-4.538-1.88l.413-.413-.413.413A6.398 6.398 0 0 1 .584 7a6.4 6.4 0 0 1 1.88-4.538Zm4.538-.712c-1.45 0-2.762.587-3.713 1.537A5.232 5.232 0 0 0 1.751 7c0 1.45.587 2.761 1.537 3.712a5.232 5.232 0 0 0 3.713 1.538 5.23 5.23 0 0 0 3.712-1.538A5.232 5.232 0 0 0 12.251 7c0-1.45-.587-2.762-1.538-3.713A5.232 5.232 0 0 0 7.001 1.75Z" fill="#202046"/><path data-follow-fill="#202046" fill-rule="evenodd" clip-rule="evenodd" d="M4.666 5.432a2.333 2.333 0 1 1 2.917 2.26v.657a.583.583 0 1 1-1.167 0V7.182c0-.322.261-.583.583-.583a1.167 1.167 0 1 0-1.166-1.167.583.583 0 1 1-1.167 0Zm2.48 5.834a.875.875 0 1 0 0-1.75.875.875 0 0 0 0 1.75Z" fill="#202046"/></svg>