<svg viewBox="0 0 16 16" fill="none" xmlns="http://www.w3.org/2000/svg"><path data-follow-fill="#8312FF" fill-rule="evenodd" clip-rule="evenodd" d="M13.895 8.963c.223-1.394-.446-3.067-1.896-4.517-1.45-1.506-3.124-2.12-4.462-1.841 0 0-.446.056-.725-.223a.79.79 0 0 1 0-1.115c.167-.168.502-.224.502-.224 1.17-.167 3.513.056 5.8 2.343s2.51 4.629 2.342 5.8c0 0-.055.335-.223.502a.79.79 0 0 1-1.115 0c-.279-.279-.223-.725-.223-.725Zm-7.64 1.227c1.338 1.339 2.9 2.621 3.513 2.008l.182-.185c.787-.805 1.349-1.38 3.164.073 1.76 1.408.71 2.408-.128 3.205-.091.086-.18.17-.262.253-1.004 1.004-4.63.056-8.255-3.513C.844 8.405-.104 4.724.844 3.72c.109-.102.219-.214.331-.328.814-.824 1.755-1.778 3.127-.063 1.438 1.798.89 2.366.14 3.141l-.196.205c-.613.614.67 2.176 2.008 3.514Zm1.951-6.358s-.39-.056-.67.223c-.278.279-.278.78 0 1.116.168.167.447.223.447.223l.015.003c.503.112 1.276.283 2.049 1.056.773.773.944 1.547 1.056 2.05l.003.014s.056.279.223.446a.79.79 0 0 0 1.116 0c.279-.279.223-.67.223-.67a5.423 5.423 0 0 0-1.506-2.9 5.138 5.138 0 0 0-2.956-1.559Z" fill="#8312FF"/></svg>