<svg width="16" height="16" viewBox="0 0 16 16" fill="none" xmlns="http://www.w3.org/2000/svg">
<path fill-rule="evenodd" clip-rule="evenodd" d="M1 7.33333C1 3.83554 3.83554 1 7.33333 1C10.8311 1 13.6667 3.83554 13.6667 7.33333C13.6667 10.8311 10.8311 13.6667 7.33333 13.6667C3.83554 13.6667 1 10.8311 1 7.33333ZM7.33333 2.33333C4.57192 2.33333 2.33333 4.57192 2.33333 7.33333C2.33333 10.0947 4.57192 12.3333 7.33333 12.3333C10.0947 12.3333 12.3333 10.0947 12.3333 7.33333C12.3333 4.57192 10.0947 2.33333 7.33333 2.33333Z" fill="#C0C3C8"/>
<path fill-rule="evenodd" clip-rule="evenodd" d="M10.9357 10.936C11.1961 10.6756 11.6182 10.6756 11.8785 10.936L14.707 13.7644C14.9673 14.0248 14.9673 14.4469 14.707 14.7072C14.4466 14.9676 14.0245 14.9676 13.7642 14.7072L10.9357 11.8788C10.6754 11.6184 10.6754 11.1963 10.9357 10.936Z" fill="#C0C3C8"/>
</svg>
